<svg xmlns="http://www.w3.org/2000/svg" enable-background="new 0 0 400 350" viewBox="0 0 400 350"><path d="M343.184 237.977a.5.5 0 1 0-.926.376l2.1 5.156a.5.5 0 1 0 .927-.377l-2.1-5.155zM342.648 244a.5.5 0 1 0-.846.534l2.4 3.803a.5.5 0 0 0 .846-.534l-2.4-3.802zM357.127 254.375a8.245 8.245 0 0 0 3.381-4.713.5.5 0 0 0-.967-.256 7.23 7.23 0 0 1-2.964 4.135.5.5 0 1 0 .55.834zM360.29 235.446l1.326-1.91a.5.5 0 1 0-.82-.571l-1.327 1.91a.5.5 0 1 0 .82.57zM362.622 274.933l-.507-.378a.5.5 0 0 0-.598.802l.507.378a.5.5 0 1 0 .598-.802zM357.096 274.504a.5.5 0 1 0-.693.72l1.13 1.09a.5.5 0 0 0 .694-.721l-1.13-1.09zM349.427 277.716a.5.5 0 1 0-.845.535l.347.551a.5.5 0 0 0 .846-.535l-.348-.55zM354.057 287.052l-1.623-.8a.5.5 0 0 0-.441.896l1.623.8a.5.5 0 1 0 .441-.896zM361.787 284.21a.5.5 0 1 0-.346.937l1.473.542a.5.5 0 0 0 .343-.94l-1.47-.54z"/><path d="M376.95 293.445h-48.607c.26-.777 2.586-1.61 6.764-6.953.012-.005.024-.003.036-.009 2.393-1.175 5.104-2.135 7.868-2.92 1.031 6.133 5.956 9.28 12.59 8.488 7.64-.88 16.02-6.51 15.36-12.45-.685-6.263-10.641-9.465-17.71-8.66-8.36.95-10.84 6.58-10.37 11.62v.003c-2.253.634-4.472 1.383-6.528 2.267 3.38-4.707 6.294-10.36 8.762-16.169 10.657 2.617 20.098-2.747 23.326-15.74 3.38-13.57-.72-31.36-11.1-33.95-11.176-2.795-22.748 12.725-25.74 24.75-3.61 14.47 3.91 22.16 12.46 24.66l.007.001c-3.952 9.292-9.023 18.133-15.233 23.187.822-4.367-.038-9.785-1.512-14.995l.008-.004c9.144-4.572 6.568-15.349-.93-22.09v-177.2c0-.28-.23-.5-.5-.5l-134.3.03v25.02l-4.08.37c-.75.08-1.54.63-1.98 1.36l-16.39 28.009-9.18.531c-.08-9.924-5.245-34.512-21.668-38.29.019-.724.012-1.784-.178-1.992-.3-.328-.991-.69-1.895-1.054v-.004l.36-2.21c1.62.37 4.98.95 5.8-.29 1.55-2.33 3.94-8.71 2.99-13.59 1.218-.313 2.44-1.01 3.137-2.486h.012c1.362-2.88 4.426-8.997.926-9.682-2.152-.421-2.322 3.786-8.464 2.3-1.351-.323-2.49-.245-3.384.112-1.965-.334-2.215-.463-4.002-.362-6.856.413-7.817 16.013-7.002 19.33.086.35.263.652.498.92-.26 1.369-.58 2.589-.88 3.538l-.004.013c-.806-.071-1.42-.063-1.726.052-.712.269-.855 2.676-.884 3.726-9.044 1.313-16.127 5.473-18.726 8.51-2.904 3.39-19.634 36.818.24 62.12.197 1.112 1.425 8.022 1.6 9.07-2.22 20.22-1.03 64.42-.2 106.09h2.26c-.109 8.07-.52 14.356.436 15.335.07.07.148.128.225.188H66.124a4.436 4.436 0 0 0 2.484-3.062l4.188-18.872h1.425c.55 0 1-.45 1-1v-2.62c0-.55-.45-1-1-1H63.086a36.226 36.226 0 0 1 1.934-3.005c.097-.136.058-.302-.07-.421a.302.302 0 0 0-.422.07 36.325 36.325 0 0 0-2.143 3.356h-1.908c.587-2.234 1.19-5.234 1.731-8.126.201 1.752 1.241 3.439 2.461 4.629 1.94-2.708 4.356-5.494 6.842-8.112.016-2.237 1.159-4.443 1.211-4.532a.3.3 0 0 1 .409-.13c.149.083.204.26.12.41-.005.018-.898 1.734-1.1 3.587a154.502 154.502 0 0 1 6.7-6.517c-.548-2.422 1.465-5.346 1.552-5.47a.304.304 0 0 1 .425-.071c.122.108.167.278.07.417-.017.032-1.747 2.543-1.524 4.643a154.884 154.884 0 0 1 5.703-4.964.295.295 0 0 1 .424.041.304.304 0 0 1-.045.428c-.042.036-1.01.832-2.528 2.156 1.418.386 2.27-.33 2.308-.369a.306.306 0 0 1 .426.028.3.3 0 0 1-.02.424c-.057.047-1.28 1.11-3.237.376a174.534 174.534 0 0 0-5.791 5.32c1.62.677 4.185.192 4.21.188a.305.305 0 0 1 .356.24.31.31 0 0 1-.24.356c-.122.02-3 .562-4.79-.341-2.341 2.267-4.837 4.818-7.105 7.42 1.622.436 3.083-.712 3.098-.73.128-.1.32-.084.424.049a.3.3 0 0 1-.049.424c-.078.062-1.884 1.486-3.91.752a64.293 64.293 0 0 0-3.51 4.43c1.047 1.075 2.215 2.12 3.702 2.445 4.4.965 6.042-2.867 7.24-5.213 1.93-3.825 3.611-3.527 5.86-3.905 3.238-.558 2.967-2.31 2.974-4.619-.005-3.327 2.095-6.565 5.133-7.925 1.901-.846 6.936-1.548 6.787-4.996-.117-2.652-4.555-5.008-8.73-3.321-2.53 1.019-4.532 3.369-7.246 3.664-1.801.2-3.705-.623-5.73 2.111.544-4.851-2.798-8.317-2.824-12.748-.016-2.995 1.559-5.723 2.73-8.479 3.403-8.009-.852-9.823-2.592-12.11-3.994-5.222-.476-14.59-10.184-18.433-5.48-2.169-9.028 1.59-7.37 6.891.775 2.478 7.862 12.28-.55 20.272-1.21 1.161-2.73 2.216-3.132 3.842-.755 3.103 2.627 5.473 3.58 8.136.767 2.15.203 4.54-.563 6.692-.536 1.527-1.17 3.046-1.507 4.61-.04-.057-.088-.105-.126-.163-1.422-2.154-1.57-4.865-2.021-7.406-.452-2.541-1.454-5.288-3.776-6.43-1.184-.581-2.554-.649-3.797-1.092-3.374-1.193-5.221-4.793-8.141-6.854a10.288 10.288 0 0 0-7.887-1.657c-4.976 1.014-5.769 5.397-2.076 8.444 1.527 1.26 3.402 2.037 4.982 3.24 3.466 2.648 5.171 7.41 4.164 11.653-.327 1.407-.927 2.884-.452 4.247.438 1.241 1.651 2.027 2.856 2.54 2.728 1.146 4.986 1.262 6.302 6.744.47 1.918.78 3.925 1.844 5.582 1.251 1.944 3.507 3.21 5.824 3.246 1.994.032 3.799-.95 5.458-2.005-.897-2.18-1.97-4.445-3.147-6.708-2.804.327-4.68-2.032-4.76-2.135a.394.394 0 0 1 .064-.557.4.4 0 0 1 .557.065c.012.029 1.53 1.933 3.732 1.865-2.112-4.002-4.527-8.007-6.831-11.604-2.556.615-6.065-.943-6.215-1.006a.406.406 0 0 1-.198-.526.4.4 0 0 1 .526-.199c.031.012 3.156 1.403 5.428 1.027-2.16-3.35-4.204-6.3-5.788-8.53-2.717.35-3.958-1.375-4.018-1.452a.394.394 0 0 1 .104-.548.4.4 0 0 1 .551.093c.036.062.91 1.231 2.834 1.165-1.54-2.145-2.533-3.451-2.577-3.51a.399.399 0 0 1 .072-.56.387.387 0 0 1 .552.075c.288.375 2.67 3.504 5.782 8.048.918-2.612-.534-6.336-.546-6.382-.083-.206.026-.41.215-.51a.398.398 0 0 1 .52.218c.073.184 1.762 4.52.335 7.445a202.485 202.485 0 0 1 6.586 10.329c.3-2.425-.322-4.882-.325-4.907a.39.39 0 0 1 .277-.486.394.394 0 0 1 .483.288c.04.13.835 3.288.182 6.145 2.384 4.09 4.628 8.37 6.288 12.407.055-.033.106-.073.16-.106 2.078-1.362 3.85-3.117 4.548-5.562.339-1.189.385-2.446.193-3.666.402.02.803.033 1.202.038.51-2.687.902-5.57 1.193-8.515-2.933-1.46-3.261-4.942-3.274-5.093a.457.457 0 0 1 .416-.5.464.464 0 0 1 .5.416c-.007.036.263 2.85 2.445 4.178.484-5.228.675-10.652.716-15.608-2.874-1.023-5.298-4.76-5.403-4.917a.471.471 0 0 1 .14-.637.463.463 0 0 1 .638.14c.022.032 2.178 3.364 4.625 4.438.023-4.624-.092-8.787-.22-11.958-2.861-1.384-2.974-3.846-2.983-3.96-.014-.596.89-.629.924-.026-.004.083.103 1.773 2.017 2.929-.137-3.061-.275-4.96-.28-5.045a.463.463 0 0 1 .425-.499.45.45 0 0 1 .489.424c.041.545.373 5.097.518 11.486 2.548-1.957 3.497-6.496 3.515-6.55.05-.251.284-.38.532-.36.252.051.417.292.367.544-.045.225-1.152 5.51-4.394 7.448.079 4.222.071 9.146-.145 14.213 1.828-2.166 2.78-4.949 2.794-4.974a.452.452 0 0 1 .578-.297.457.457 0 0 1 .286.585c-.043.151-1.272 3.725-3.718 6.089-.275 5.485-.807 11.068-1.753 16.044 2.873.105 5.983-.626 8.169-2.524.063-.055.117-.12.178-.177a6.219 6.219 0 0 1-.832.985c-1.75 1.648-4.376 1.987-6.296 3.43a6.556 6.556 0 0 0-1.91 2.32c.262-1.454.495-2.756.683-3.73.118-.618-.795-.73-.901-.173-.677 3.517-1.944 11.333-3.115 15.661h-.807c-.452-1.882-1.148-3.978-2.083-6.268a.396.396 0 0 0-.516-.216c-.2.113-.3.313-.216.515.89 2.18 1.557 4.174 2 5.97H44.78c-.56 0-1 .45-1 1v2.62c0 .55.44 1 1 1h1.42l4.19 18.871a4.436 4.436 0 0 0 2.483 3.062H35.088a.5.5 0 0 0 0 1H376.95a.5.5 0 1 0 0-1zm-33.08-11.154c-.35-4.52 1.96-9.5 9.49-10.36 6.345-.722 15.998 2.155 16.61 7.78.59 5.3-7.45 10.54-14.49 11.35-5.9.681-10.59-1.902-11.489-7.769 9.21-2.468 18.68-3.035 18.807-3.042a.5.5 0 0 0 .471-.527.484.484 0 0 0-.527-.471c-.127.007-9.586.573-18.871 3.04zm.58-14.84c-8.15-2.34-15.34-9.65-11.88-23.49 2.809-11.265 13.92-26.672 24.53-24.02 10.258 2.565 13.323 20.842 10.36 32.73-3.085 12.405-11.831 17.435-21.95 15.05 6.669-16.049 9.945-32.95 10.17-34.135a.5.5 0 1 0-.983-.187c-.056.292-3.426 17.688-10.238 34.054l-.008-.002zm-299.67.44h29.44v2.62H44.78v-2.62zm64.98 14.39 6.17 1.87a.533.533 0 0 0 .42-.06l3.75-2.52 8.58 5.12c.06.04.13.06.2.07l4.13.43a4.48 4.48 0 0 1 3.43 2.25l.001.001h-26.81l.13-7.16zm30.86 7.161c.019-1 .133-7.262.13-7.16l6.18 1.87c.138.045.315.01.42-.06l3.75-2.52 8.57 5.12c.07.04.14.06.21.07l4.12.43c1.49.16 2.75 1.03 3.44 2.25h.001-26.82zm9.99-8.75-3.62 2.44-6.2-1.89-.01-3.32h10.11l-.28 2.77zm1.04-48.53a.496.496 0 0 1-.71 0 .504.504 0 0 1 0-.71l2.53-2.54c.2-.19.51-.2.71 0 .19.19.19.51 0 .71l-2.53 2.54zm-.32-5.57a.507.507 0 0 1-.71.01.513.513 0 0 1 0-.71l5.06-5.09c.2-.19.51-.19.71 0 .2.2.2.51 0 .71l-5.06 5.08zm-18.22 59.61-4.02-.42-8.48-5.07.28-2.79h2.41l5.8-70.24c-.1.023-.134.044-.24.03-1.143-.192-3.832-12.752.37-19.18.15-.23.46-.29.69-.14.23.15.3.46.14.69-3 4.598-2.365 13.202-.66 17.98.05.14.03.29-.04.41l8.16 70.45h2.26c-.006.211-.55 14.564.66 15.523h-3.273c2.012-1.586.332-6.782-4.056-7.244zm31 0-4.02-.42-8.48-5.07.28-2.79h2.41c6.041-101.29 4.092-83.616-.16-126.59 8.32-.02 20.54-3.06 26.6-6.09.19-.1.3-.3.28-.51l-.075-.601c4.528-.59 8.087-1.71 10.656-3.37v152.684h-23.437c1.972-1.555.391-6.783-4.053-7.244zm6.859-154.737.002-.004 14.38-24.56 16.24-1.49-13.14 22.43c-.009-.1.942-4.192-2.72-3.36-2.248.535-3.29 5.548-5.68 6.68l-9.082.304zm19.572-27.644c.18-.3.56-.57.85-.6l5.83-.53c.29-.03.38.2.2.5-.18.31-.56.58-.85.61l-5.83.53c-.29.03-.38-.2-.2-.51zm-9.722 39.32-1.208-10.7c4.321-1.717 4.427-6.547 6.35-6.98 2.806-.702 1.093 3.203.86 6.66v.003c-.084.1-1.481 1.78-1.3 1.56a.5.5 0 0 0 .724.693c.095-.1 1.46-1.536 1.376-1.436 2.115-1.838 4.606-4.025 6.29-6.59.21.42.48 1 .72 1.7l.002.008c-.175.482-.759 1.987-1.655 3.169a.5.5 0 1 0 .797.604c.56-.739 1-1.572 1.314-2.257l.002.006c.15.65.27 1.34.32 2.07-.345 1.032-1.05 2.496-1.801 3.452a.5.5 0 0 0 .085.703c.546.434.993-.418 1.457-1.211l-.001.006v.01c-1.488 5.724-8.468 7.762-14.33 8.53h-.002zm7.602-12.21c-.201.343 2.662-4.555 16.29-27.84v-.01c.3-.513.413-1.101.19-1.66.5.17.9.45 1.26.88 0 .1.681.588.1 1.46-13.422 22.958-13.552 23.307-17.84 27.17zm139.172 161.591c-.393.28-.79.54-1.192.79V277.12c1.537 5.49 2.37 11.15 1.192 15.401zm-.552-16.94-.01.004a77.338 77.338 0 0 0-.63-2.022v-17.693c6.36 6.22 8.636 15.601.64 19.71zm-9.53-197.8h7.89c-.037 245.605 0 186.995 0 215.54h-7.89V77.781zm-55.43 8.46h.41c.28 0 .5.22.5.5 0 .27-.22.5-.5.5h-.41c-.28 0-.5-.23-.5-.5 0-.28.22-.5.5-.5zm-15.97 0h12.9c.27 0 .5.22.5.5 0 .27-.23.5-.5.5h-12.9c-.28 0-.5-.23-.5-.5 0-.28.22-.5.5-.5zm-48.52-3.43h35.86v8.8c0 .73.59 1.33 1.32 1.33h39.05c.73 0 1.33-.6 1.33-1.33v-8.8H311v204.4H197.59v-167.63l9.1-15.56c.486-.773.357-1.533-.16-2.05-1.675-1.968-3.996-1.11-8.94-.69v-18.47zm-70.36 5.65c.27-.85.53-1.859.77-2.958 1.755.976 4.712 1.115 6.703 1.02.86-.045 1.518-.805 1.463-1.665-.19-2.478.703-7.526 1.92-7.66 2.01-.234.503 3.674 1.53 3.942.804.212 1.284-3.093 1.284-3.093 3.083-1.329.827-3.317.827-3.317s1.223.277 2.673.12c.86 4.41-1.28 10.51-2.84 12.86-.36.54-3.05.3-5.25-.25a.475.475 0 0 0-.4.07c-.11.07-.19.19-.22.33l-.42 2.54-.001.006c-2.384-.83-5.677-1.608-8.043-1.935l.004-.01zm-23.11 15.05c-5.235 15.767-3.277 33.915.64 57.16-14.643-19.095-6.31-47.367-.64-57.16zm3.583 11.773a.5.5 0 0 0-.578-.817c-.196.139-3.547 2.613-5.125 8.817v-.064c0-21.74 6.37-28.168 22.47-30.21h.01l.022-.003c4.423 1.893 8.728 2.554 12.99 1.655l.038.008h.01c14.49 3.123 21.471 24.762 21.425 37.802l-3.55 4.582a.5.5 0 1 0 .79.612l3.525-4.55 14.218-.82.862 8.68a.5.5 0 1 0 .995-.098l-.858-8.64 3.443-.198c.012.1 1.538 12.24 1.59 12.46-6.1 2.95-18.01 5.82-25.93 5.83-.34 0-.67 0-1-.01-10.666-.361-15.233-12.874-10.947-19.227a.501.501 0 0 0-.831-.557c-.1.15-1.918 2.952-1.654 7.41-2.16-5.555-3.641-12.622-3.838-19.246 0-.248-.258-.49-.51-.49-.238 0-.507.219-.49.51.296 9.902 4.152 27.452 12.83 31.57 1.34.64 3.26.96 5.53 1.03.787 8.161 2.007 19.687 2.11 20.73h-47.48c-.197-1.272-.883-5.046-.96-5.43h36.834a.5.5 0 1 0 0-1h-37.014c-2.614-15.524-8.755-43.35 1.073-50.336zm-1.513 106.226c-.2-.2-.2-.51 0-.71.2-.2.51-.19.71 0l5.06 5.09c.19.19.19.51 0 .71a.507.507 0 0 1-.71-.01l-5.06-5.08zm2.21 7.4c.2-.2.51-.2.71 0l2.53 2.54c.19.2.19.52 0 .71a.496.496 0 0 1-.71 0l-2.53-2.54a.513.513 0 0 1 0-.71zm11.49 49.01-.28 2.77-3.62 2.44-6.2-1.89-.01-3.32h10.11zM74.864 112.455l1.517-1.362a.5.5 0 1 0-.668-.744l-1.517 1.362a.5.5 0 1 0 .668.744z"/><path d="M141.461 103.55a26.76 26.76 0 0 1 4.937 3.244.5.5 0 0 0 .638-.77 27.779 27.779 0 0 0-5.121-3.366.5.5 0 1 0-.454.892zM76.206 87.38a2.113 2.113 0 1 0-.002-4.226 2.113 2.113 0 0 0 .002 4.226zM53.49 130.372a26.76 26.76 0 0 1 4.936-3.245.5.5 0 0 0-.453-.891 27.779 27.779 0 0 0-5.121 3.366.5.5 0 0 0 .637.77zM343.89 154.037a.5.5 0 1 0 .668-.744l-1.518-1.362a.5.5 0 0 0-.667.744l1.517 1.362zM339.973 101.03a2.113 2.113 0 1 0 .003-4.227 2.113 2.113 0 0 0-.003 4.226zM305.48 63.293a26.68 26.68 0 0 1 4.936-3.244.5.5 0 1 0-.453-.892 27.78 27.78 0 0 0-5.12 3.366.5.5 0 0 0 .638.77zM244.413 57.79l1.516-1.363a.5.5 0 1 0-.668-.743l-1.516 1.361a.5.5 0 0 0 .668.744zM333.038 182.086a2.113 2.113 0 1 0-.002-4.226 2.113 2.113 0 0 0 .002 4.226zM365.453 150.626a26.83 26.83 0 0 1 4.936 3.245.5.5 0 1 0 .637-.77 27.792 27.792 0 0 0-5.12-3.367.5.5 0 0 0-.453.892zM160.524 93.808a2.113 2.113 0 1 0 .003-4.227 2.113 2.113 0 0 0-.003 4.227zM368.453 214.988a.5.5 0 0 0 .218.673 26.785 26.785 0 0 1 4.937 3.244.5.5 0 1 0 .637-.77 27.805 27.805 0 0 0-5.12-3.366.5.5 0 0 0-.672.22zM362.1 198.333a.5.5 0 1 0 .668-.744l-1.518-1.362a.5.5 0 0 0-.668.744l1.518 1.362zM350.697 122.116a2.113 2.113 0 1 0 .003-4.227 2.113 2.113 0 0 0-.003 4.227zM167.46 180.343a.5.5 0 1 0-.68.732l6.052 5.631a.5.5 0 1 0 .681-.732l-6.053-5.63zM175.658 224.685a.5.5 0 1 0-.453.892 26.78 26.78 0 0 1 4.937 3.245.5.5 0 0 0 .637-.77 27.807 27.807 0 0 0-5.12-3.367zM50.89 91.223a.5.5 0 1 0 .669-.745l-1.518-1.362a.5.5 0 1 0-.668.744l1.518 1.363zM190.732 62.598a.5.5 0 1 0 .668-.745l-1.517-1.361a.5.5 0 0 0-.668.743l1.517 1.363zM321.454 102.637c-.787 0-1.425.638-1.425 1.425v24.201a1.425 1.425 0 1 0 2.85 0v-24.2c0-.788-.638-1.426-1.425-1.426zM321.447 96.633a1.87 1.87 0 0 0-1.867 1.8c0 1.039.828 1.88 1.867 1.88 1.012 0 1.84-.801 1.88-1.814a1.877 1.877 0 0 0-1.88-1.866zM255.29 165.681c14.6 0 27.14-11.758 27.14-27.14 0-14.98-12.17-27.16-27.14-27.16s-27.16 12.18-27.16 27.16c0 15.437 12.606 27.14 27.16 27.14zm0-52.3c13.87 0 25.14 11.29 25.14 25.16 0 8.802-4.523 14.338-4.647 14.597-3.595-4.53-8.647-7.84-14.457-9.213 8.877-5.964 4.606-19.852-6.038-19.852-10.623 0-14.97 13.868-6.037 19.854a26.185 26.185 0 0 0-14.471 9.213l-.55-.809a25.29 25.29 0 0 1-4.1-13.79c0-13.87 11.29-25.16 25.16-25.16zM212.53 201.191h85.5c1.1 0 1.98-.88 1.98-1.97v-13.1c0-1.09-.88-1.97-1.97-1.97H212.5c-1.08 0-1.95.87-1.95 1.94v13.13c0 1.08.89 1.97 1.98 1.97zm52.81-10.29h7.74c.98 0 1.77.79 1.77 1.77s-.79 1.77-1.77 1.77h-7.74c-.97 0-1.77-.79-1.77-1.77s.8-1.77 1.77-1.77zm-44.74 0h35.57c.98 0 1.77.79 1.77 1.77s-.79 1.77-1.77 1.77H220.6c-.98 0-1.77-.79-1.77-1.77s.79-1.77 1.77-1.77zM212.53 230.301h85.53c1.08 0 1.95-.87 1.95-1.95v-13.12c0-1.09-.89-1.98-1.98-1.98h-85.51c-1.09 0-1.97.88-1.97 1.97v13.1c0 1.09.89 1.98 1.98 1.98zm64.74-10.95a2.424 2.424 0 1 1 0 4.85 2.424 2.424 0 1 1 0-4.85zm-9.89 0a2.426 2.426 0 1 1 0 4.85 2.424 2.424 0 1 1 0-4.85zm-9.89 0a2.426 2.426 0 1 1 0 4.85 2.424 2.424 0 1 1 0-4.85zm-9.88 0c1.34 0 2.42 1.09 2.42 2.43s-1.08 2.42-2.42 2.42c-1.35 0-2.44-1.08-2.44-2.42 0-1.34 1.09-2.43 2.44-2.43zm-9.89 0c1.34 0 2.42 1.09 2.42 2.43s-1.08 2.42-2.42 2.42a2.424 2.424 0 1 1 0-4.85zm-9.89 0a2.424 2.424 0 1 1 0 4.85 2.424 2.424 0 1 1 0-4.85zm-9.89 0a2.424 2.424 0 1 1 0 4.85 2.424 2.424 0 1 1 0-4.85zM283.52 241.791h-56.48c-1.09 0-1.97.88-1.97 1.97v20.26c0 1.09.88 1.97 1.97 1.97h56.48c1.09 0 1.97-.88 1.97-1.97v-20.26c0-1.09-.88-1.97-1.97-1.97zm-11.86 12.6h-31.52c-.27 0-.5-.22-.5-.5s.23-.5.5-.5h31.52c.27 0 .5.22.5.5s-.23.5-.5.5zM303.85 94.431c2.2 0 3.98-1.79 3.98-3.98s-1.78-3.97-3.98-3.97-3.97 1.78-3.97 3.97 1.77 3.98 3.97 3.98zm-1.45-5.08c-.1-.1-.1-.26 0-.35.1-.1.25-.1.35 0l1.11 1.11 1.1-1.11c.1-.1.25-.1.35 0 .1.09.1.25 0 .35l-1.1 1.11 1.1 1.1c.1.09.1.25 0 .35a.252.252 0 0 1-.35 0l-1.1-1.1-1.11 1.1a.252.252 0 0 1-.35 0c-.1-.1-.1-.26 0-.35l1.11-1.1-1.11-1.11zM200.771 86.979h5.599a.5.5 0 1 0 0-1h-5.599a.5.5 0 1 0 0 1zM200.771 89.227h5.599a.5.5 0 1 0 0-1h-5.599a.5.5 0 1 0 0 1zM206.87 90.974a.5.5 0 0 0-.5-.5h-5.599a.5.5 0 1 0 0 1h5.599a.5.5 0 0 0 .5-.5zM68.791 163.176l1.751-1.606a.5.5 0 0 0-.675-.738l-1.751 1.606a.5.5 0 0 0 .675.738zM104.569 78.624a2.113 2.113 0 1 0 .003-4.227 2.113 2.113 0 0 0-.003 4.227zM158.915 138.795l1.53-2.162a.5.5 0 0 0-.816-.578l-1.53 2.162a.5.5 0 0 0 .816.578zM184.9 122.171c3.072 0 6.326-2.572 7.39-5.31.66-1.65.55-3.23-.29-4.32-.67-.88-1.76-1.36-3.07-1.36-2.89 0-6.21 2.38-7.38 5.31-1.244 3.07.268 5.68 3.35 5.68zm4.03-9.99c3.035 0 4.124 3.38.55 6.96-.35-.7-.99-1.21-1.85-1.43 2.096-1.083 2.426-3.8.4-3.8-2.098 0-3.838 2.76-2.66 3.8-1.11.24-2.23.8-3.19 1.56-.656-2.956 3.116-7.09 6.75-7.09z"/></svg>