<svg xmlns="http://www.w3.org/2000/svg" enable-background="new 0 0 400 350" viewBox="0 0 400 350"><path d="M370 277.57h-17.274c2.025-5.67 3.126-12.969 2.947-19.737 3.368-2.082 6.173-4.534 8.483-7.385 3.061-3.784 4.006-13.434 2.529-25.813-4.05-33.915-13.314-39.987-39.079-41.041l-.608-8.924c10.438-2.574 11.113-27.113 4.136-30.486-4.377-2.115-5.835 2.542-14.797.28-8.96-2.263-20.843 4.855-17.129 10.786.442.705 1.052 1.234 1.776 1.626-.317 2.227-.183 4.906 1.641 6.617.214 5.018 1.214 10.777 4.36 13.762 1.686 1.6 3.833 2.246 6.381 1.943l.204 3.073c.01.155.09.29.197.4l.111 1.63c-20.84 3.678-23.576 12.087-25.733 22.793-1.473 6.71-2.554 18.26-3.076 25.662l-1.52-6.374a.236.236 0 0 0-.225-.18l-76.459.061a.5.5 0 0 0-.487.612l11.679 50.695h-103.4c-.018-21.396-1.223-36.659-3.885-48.893 3.579 5.13 12.655 17.356 18.262 17.933 5.928.638 17.238-6.902 19.151-8.672 10.45-7.606 20.382-17.534 21.067-18.222a.501.501 0 0 0 .062-.629l-1.864-2.82c11.536-1.197 23.222-12.424 24.123-16.531.432-1.97-.28-3.128-1.045-3.787.13-.301.24-.605.307-.911.5-2.283-.51-3.491-1.488-4.116.117-1.097-.076-1.965-.61-2.56-.787-.876-1.967-.831-2.195-.814-.287-.915-.852-1.657-1.81-1.744a1.517 1.517 0 0 0-1.485.899c-1.528 3.452-8.917 8.745-12.39 11.096 2.294-4.273 3.245-8.973-1.48-9.575-4.889-.62-8.762 11.614-9.96 15.894l-2.533-3.831a.5.5 0 0 0-.686-.145L132.229 215.5c-9.59-22.86-27.29-35.959-45.55-39.028l.736-3.581c1.567.94 3.947 2.135 4.885 1.363 2.52-2.076 1.957-13.446 1.612-18.102 5.17-1.565 8.794-3.571-.195-6.783-22.525-8.047-21.737 11.787-20.49 14.773.53 1.268 1.111 4.086 1.65 5.43.113.47.515.802.98.974l-.643 5.462c-5.33.516-20.846 5.216-26.422 9.094-10.619 7.392-12.71 25.948-14.348 38.988-1.37 10.896-3.527 16.646.58 53.479H30a.5.5 0 1 0 0 1h340a.5.5 0 1 0 0-1zm-55.755-15.06c0 .007-.004.013-.004.02.096 4.04-3.863 7.723-4.322 4.269a.5.5 0 0 0-.83-.306c-1.297 1.169-2.226 1.162-2.453-.582a.5.5 0 0 0-.831-.306c-2.488 2.242-2.592-.618-1.771-3.713.201-.463.567-.961.047-1.234a.501.501 0 0 0-.675.212c-.065.126-1.617 3.136-1.977 7.253-.1 1.155-.847 1.842-2.218 2.041-.38.056-.722-.249-.744-.64-.688-13.534 4.633-17.332 13.665-16.375l2.113 9.361zm37.434 15.06h-23.504v-6.333c0-.129-.102-.23-.23-.23l-27.518-.139c1.183-.465 1.886-1.378 1.998-2.658.067-.763.179-1.487.315-2.162.407 1.567 1.685 1.64 3.074.791.503 1.598 1.795 1.799 3.285.888.95 2.992 4.722.881 5.75-2.538l.33 1.464a.5.5 0 0 0 .488.39c10.794 0 28.379-2.468 39.009-8.615.104 6.62-.995 13.697-2.997 19.142zm-44.006-101.04c-3.13-2.97-3.964-9.16-4.066-14.25.041-.014.083-.025.12-.05.057-.038 1.405-.917 3.876.054a.5.5 0 1 0 .365-.93c-2.178-.858-3.678-.47-4.372-.172 0-1.286.04-2.472.096-3.485 5.876.78 14.547-2.744 14.547-2.744-3.487 2.531 1.709 5.072 1.709 5.072s-.532 5.967.418 6.136c.85.152 1.7-7.231 4.473-5.491 1.73 1.086 1.082 14.185 1.082 14.185.03-.003.057-.012.086-.015l.623 9.137-7.962 9.282-3.747-8.368-.15-2.19c3.906-1.982 6.593-6.98 6.71-7.19a.68.68 0 0 0-.173-.83.666.666 0 0 0-.844 0c-3.855 3.078-6.452 3.252-6.505 3.252a.712.712 0 0 0-.469.228l-.004.008c-2.346.335-4.304-.208-5.813-1.638zm-18.487 30.506c1.571-6.762 4.928-8.996 4.966-9.02a.5.5 0 0 0-.533-.846c-.094.06-1.278.834-2.59 2.783 3.022-8.85 13.855-13.042 22.976-14.66l4.073 9.095a.498.498 0 0 0 .456.295.502.502 0 0 0 .38-.174l8.512-9.923c20.509.817 36.115 6.814 30.226 26.46a.5.5 0 1 0 .957.286c1.327-4.426 1.427-8.021 1.04-10.795 2.97 6.934 5.084 16.191 6.043 24.217 1.424 11.935.538 21.54-2.314 25.064-4.168 5.145-10.01 8.965-17.983 11.624 1.616-1.525 2.442-3.192 2.502-3.318a.499.499 0 1 0-.9-.432c-3.54 7.087-19.383 7.811-30.934 8.333l-3.64-16.133 31.787-11.55 6.299 4.03a.5.5 0 0 0 .54-.843l-6.449-4.126-1.166-9.928a.493.493 0 0 0-.556-.439.5.5 0 0 0-.438.555c1.188 11.269 1.173 8.451 1.034 9.954l-31.808 11.558a.5.5 0 0 0-.316.58l.55 2.437c-9.373-.855-15.159 3.278-14.431 17.456.024.475.248.92.615 1.22.032.027.073.037.107.061l-2.098-.01c-5.554-18.76 4.385-50.583 4.488-50.909a.5.5 0 0 0-.953-.301c-.104.327-10.033 32.103-4.582 51.204l-.903-.004-8.291-34.794c.773-12.215 1.896-21.948 3.334-29.007zm-11.288 20.227 11.474 49.809h-70.404l-11.475-49.809h70.405zM169.25 189.217c4.468.568 2.146 6.218-.351 9.921a.51.51 0 0 0 .199.73l.002.002c.204.097 4.996 2.431 3.386 7.813a.5.5 0 0 0 .958.287c1.444-4.828-1.697-7.573-3.186-8.568 2.645-1.73 12.042-8.088 13.903-12.295.766-1.714 5.328 3.574-5.998 9.82a.5.5 0 1 0 .485.875c7.95-4.4 7.966-8.564 8.249-9.253 1.515.12 1.684 1.455 1.362 2.928-.79 3.601-7.381 7.286-7.448 7.323a.5.5 0 0 0 .485.875c.28-.155 6.685-3.746 7.841-7.667.746.646.99 1.589.721 2.816-.79 3.601-7.38 7.286-7.447 7.323a.5.5 0 0 0 .484.875c.243-.135 5.095-2.856 7.135-6.133.605.636.813 1.51.566 2.633-.779 3.552-12.38 14.938-23.771 15.8l-6.674-10.094c1.312-5 5.162-16.52 9.1-16.011zm-55.937 7.856c.04.331.306.466.554.436.249-.03.478-.226.439-.555-.03-.255-.568-4.448-2.957-8.19 9.686 7.545 15.525 16.494 20.13 27.537l-.756 6.528c-.038.327.191.523.44.553.247.031.515-.103.553-.437l.742-6.404 17.593-11.273 8.346 12.642a.5.5 0 0 0 .835-.55l-8.339-12.632 5.429-3.478 2.75 4.16a.5.5 0 0 0 .07.392c4.049 5.998 5.038 7.56 9.112 13.495-1.55 1.53-9.083 8.866-17.497 15.413 1.876-3.343 1.415-6.268 1.382-6.45a.5.5 0 0 0-.984.174c.01.053.729 4.562-3.535 8.644-6.882 5.029-13.927 9.023-18.482 8.538-6.267-.646-18.073-18.251-18.976-19.611l-1.153-7.067a.5.5 0 1 0-.987.161l1.172 7.184c0 .007.005.013.007.02v.008c3.006 12.358 4.423 28.556 4.455 50.942H88.152l-1.342-79.807c.032-.039.076-.068.097-.113l8.943-17.2c.02.006.037.012.056.02 9.36 3.408 16.278 7.377 17.407 16.92zm-21.649-23.59c-.558.456-6.41-2.475-7.452-4.704a.433.433 0 0 0-.823.127c-.01.11-.308 2.608 2.67 4.795l-1.466 10.414-8.437-7.554.696-5.91c.473-.084.853-.374.883-.92-.663-9.413 4.13-6.423 4.089-3.79 0 1.091 1.871 1.091 1.871 0 0 0-.282-5.122.535-6.547.557-.971 4.854-1.86 8.702-2.954.491 6.697.513 15.577-1.268 17.043zm-56.228 50.732c.773-6.155 1.63-12.973 3.203-19.27 4.681-9.423 13.033-10.061 13.118-10.067a.5.5 0 0 0 .468-.529.49.49 0 0 0-.527-.469c-.08.005-7.014.502-12.047 7.431 2.013-6.483 4.99-12.1 9.712-15.387 4.524-3.147 12.058-5.36 17.044-6.824l1.007-.298 18.393 18.701.004.003 1.34 79.747H57.979l-1.452-33.641 2.202-7.151a.5.5 0 0 0-.956-.294l-2.16 7.01-6.173-1.174a.5.5 0 1 0-.187.982l6.297 1.199 1.428 33.07h-20.94c-.562-5.312-3.06-24.11 1.386-27.232a.5.5 0 0 0-.526-.85c-.106.063-1.853 1.204-2.698 6.593-1.16-19.077-.046-21.34 1.237-31.55zM283.91 112.524c8.979 0 16.283-7.304 16.283-16.283 0-8.974-7.304-16.275-16.283-16.275s-16.283 7.3-16.283 16.275c0 8.979 7.305 16.283 16.283 16.283zm0-31.558c8.427 0 15.283 6.852 15.283 15.275 0 8.427-6.856 15.283-15.283 15.283s-15.283-6.856-15.283-15.283c0-8.423 6.857-15.275 15.283-15.275z"/><path d="m114.213 172.218 86.324.095v23.43c0 .27.22.5.5.5h73.36c.27 0 .5-.23.5-.5v-62.2c0-.28-.23-.5-.5-.5h-39.39v-59.1c0-.28-.22-.5-.5-.5l-120.294.1a.4.4 0 0 0-.403.404v97.868a.4.4 0 0 0 .403.403zm112.484-88.105c0 .28-.22.5-.5.5h-51.45c-.27 0-.5-.22-.5-.5 0-.27.23-.5.5-.5h51.45c.28 0 .5.23.5.5zm-76 0c0 1.74-1.42 3.16-3.16 3.16s-3.15-1.42-3.15-3.16 1.41-3.16 3.15-3.16 3.16 1.42 3.16 3.16zm-9.33 0c0 1.74-1.42 3.16-3.16 3.16s-3.16-1.42-3.16-3.16 1.42-3.16 3.16-3.16 3.16 1.42 3.16 3.16zm-9.34 0c0 1.74-1.41 3.16-3.15 3.16s-3.16-1.42-3.16-3.16 1.42-3.16 3.16-3.16c1.74 0 3.15 1.42 3.15 3.16zm137.58 55.89c0 .28-.22.5-.5.5h-32.69c-.28 0-.5-.22-.5-.5s.22-.5.5-.5h32.69c.28 0 .5.22.5.5zm-48.55 0c0 1.07-.87 1.94-1.94 1.94a1.94 1.94 0 0 1 0-3.88c1.07 0 1.94.87 1.94 1.94zm-5.93 0c0 1.07-.87 1.94-1.94 1.94-1.07 0-1.93-.87-1.93-1.94 0-1.07.86-1.94 1.93-1.94 1.07 0 1.94.87 1.94 1.94zm-5.93 0c0 1.07-.87 1.94-1.94 1.94s-1.94-.87-1.94-1.94c0-1.07.87-1.94 1.94-1.94s1.94.87 1.94 1.94zm-7.66 55.24v-48.78h72.36v48.78h-72.36zm-.5-62.2c-.28 0-.5.22-.5.5v37.77h-80.95v-77.03h114.42v38.76h-32.97z"/><path d="M136.047 84.113c0 1.19.97 2.16 2.16 2.16s2.16-.97 2.16-2.16-.97-2.16-2.16-2.16-2.16.97-2.16 2.16zM145.387 84.113c0 1.19.96 2.16 2.15 2.16s2.16-.97 2.16-2.16-.97-2.16-2.16-2.16-2.15.97-2.15 2.16zM126.717 84.113c0 1.19.97 2.16 2.16 2.16s2.15-.97 2.15-2.16-.96-2.16-2.15-2.16-2.16.97-2.16 2.16zM224.267 102.343h-94.94c-.22 0-.4.18-.4.4v22.15c0 .22.18.4.4.4h94.94c.21 0 .4-.18.4-.4v-22.15c0-.22-.19-.4-.4-.4zm-53.07 5.25c1 0 1.82.82 1.82 1.82 0 1.01-.82 1.83-1.82 1.83a1.83 1.83 0 0 1-1.83-1.83c0-1 .82-1.82 1.83-1.82zm-6.32 13.53 5-6.9 1.87 2.57 5.68-7.85 5.68 7.85 1.87-2.57 4.99 6.9h-25.09zM130.542 132.905h20.762v17.048h-20.762zM130.542 153.879h16.659v2.083h-16.659zM130.542 163.598h16.659v2.083h-16.659zM130.542 158.739h10.817v2.083h-10.817zM166.414 132.905h20.762v17.048h-20.762zM166.414 153.879h16.659v2.083h-16.659zM166.414 163.598h16.659v2.083h-16.659zM166.414 158.739h10.817v2.083h-10.817zM245.987 258.413c3.5 0 6.06-2.8 5.72-6.25-.34-3.45-3.46-6.24-6.96-6.24s-6.06 2.79-5.72 6.24 3.46 6.25 6.96 6.25zm-.92-9.25c1.69 0 3.19 1.34 3.35 3 .17 1.67-1.07 3.01-2.75 3.01-1.69 0-3.19-1.34-3.35-3.01-.17-1.66 1.06-3 2.75-3zM348.952 243.886l-2.694-1.708a.5.5 0 1 0-.535.845l2.694 1.707a.5.5 0 0 0 .535-.844zM310.156 172.353c.16 0 .32-.018.47-.054.69-.168 1.24-.634 1.68-1.008a.5.5 0 1 0-.647-.762c-.398.337-.81.686-1.27.798-.343.083-.79-.024-.913-.313-.125-.288.05-.713.234-1.164a12.507 12.507 0 0 0 .443-8.17.5.5 0 0 0-.961.277c.71 2.469.566 5.137-.423 7.552-.224.547-.503 1.228-.211 1.902.28.651.959.942 1.598.942zM312.429 162.23c.057-.038 1.405-.917 3.874.054a.497.497 0 0 0 .647-.282.5.5 0 0 0-.282-.649c-3.005-1.183-4.74.006-4.811.057a.497.497 0 0 0-.121.691.502.502 0 0 0 .693.129zM314.117 163.28a1.234 1.234 0 1 0 0 2.468c.668 0 1.22-.552 1.22-1.234s-.552-1.235-1.22-1.235zM305.416 163.28a1.234 1.234 0 1 0 0 2.468c.668 0 1.22-.552 1.22-1.234s-.552-1.235-1.22-1.235zM312.18 173.656c-1.388.962-2.943.33-3.008.303a.5.5 0 0 0-.39.92c.048.021.736.306 1.662.306.691 0 1.516-.159 2.306-.708a.5.5 0 0 0-.57-.821zM135.224 223.112l.305-2.744a.5.5 0 0 0-.442-.552.508.508 0 0 0-.552.442l-.305 2.744c-.036.327.192.52.438.55.25.03.52-.106.556-.44zM92.339 203.129a2.133 2.133 0 0 0-2.136 2.136c0 1.182.954 2.136 2.136 2.136a2.133 2.133 0 0 0 2.136-2.136 2.133 2.133 0 0 0-2.136-2.136zM92.339 214.747a2.133 2.133 0 0 0-2.136 2.135c0 1.183.954 2.137 2.136 2.137a2.133 2.133 0 0 0 2.136-2.137 2.133 2.133 0 0 0-2.136-2.135zM92.339 226.364a2.133 2.133 0 0 0-2.136 2.136c0 1.182.954 2.136 2.136 2.136a2.133 2.133 0 0 0 2.136-2.136 2.133 2.133 0 0 0-2.136-2.136zM92.339 237.982a2.133 2.133 0 0 0-2.136 2.136c0 1.182.954 2.136 2.136 2.136a2.133 2.133 0 0 0 2.136-2.136 2.133 2.133 0 0 0-2.136-2.136zM92.339 249.6a2.133 2.133 0 0 0-2.136 2.136c0 1.182.954 2.136 2.136 2.136a2.133 2.133 0 0 0 2.136-2.136 2.133 2.133 0 0 0-2.136-2.136zM92.339 261.217a2.133 2.133 0 0 0-2.136 2.136c0 1.182.954 2.137 2.136 2.137a2.133 2.133 0 0 0 2.136-2.137 2.133 2.133 0 0 0-2.136-2.136zM92.339 272.835a2.133 2.133 0 0 0-2.136 2.136c0 1.182.954 2.136 2.136 2.136a2.133 2.133 0 0 0 2.136-2.136 2.133 2.133 0 0 0-2.136-2.136zM208.319 182.536h58.792v1.491h-58.792zM208.319 189.494h44.625v1.491h-44.625zM208.319 186.015h54.952v1.491h-54.952zM209.776 166.877h13.195v10.835h-13.195zM231.117 166.877h13.195v10.835h-13.195zM252.458 166.877h13.195v10.835h-13.195zM214.137 162.403h47.15c.64 0 1.16-.52 1.16-1.16v-7.01c0-.64-.52-1.16-1.16-1.16h-47.15c-.64 0-1.16.52-1.16 1.16v7.01c0 .64.52 1.16 1.16 1.16zm-.16-8.17c0-.09.07-.16.16-.16h47.15c.09 0 .16.07.16.16v7.01c0 .09-.07.16-.16.16h-47.15c-.09 0-.16-.07-.16-.16v-7.01z"/><path d="M217.647 160.403h40.13c1.48 0 2.67-1.19 2.67-2.67a2.67 2.67 0 0 0-2.67-2.67h-40.13a2.67 2.67 0 1 0 0 5.34zm40.13-1h-20.7v-3.34h20.7c.93 0 1.67.75 1.67 1.67 0 .93-.74 1.67-1.67 1.67zM273.63 92.86c5.677-5.681 14.878-5.682 20.56.001a.5.5 0 1 0 .708-.707c-6.07-6.069-15.904-6.077-21.976 0a.5.5 0 1 0 .707.706z"/><path d="M275.585 94.817a.5.5 0 1 0 .707.707c4.208-4.21 11.025-4.21 15.235 0a.5.5 0 1 0 .707-.707c-4.6-4.6-12.049-4.601-16.649 0z"/><path d="M278.248 97.48a.5.5 0 1 0 .707.707 7.002 7.002 0 0 1 9.908 0 .5.5 0 1 0 .707-.707 8 8 0 0 0-11.322 0zM281.692 99.61a3.145 3.145 0 0 0 0 4.436 3.13 3.13 0 0 0 4.436 0 3.145 3.145 0 0 0 0-4.436 3.145 3.145 0 0 0-4.436 0zM48.216 120.27l-1.497 2.136 2.427 2.428 2.144-1.497c1.3.89 2.79 1.51 4.4 1.814l.455 2.586h3.437l.456-2.586a11.462 11.462 0 0 0 4.406-1.808l2.138 1.491 2.427-2.428-1.49-2.13a11.535 11.535 0 0 0 1.807-4.414l2.58-.455v-3.43l-2.58-.462a11.74 11.74 0 0 0-1.814-4.4l1.497-2.144-2.427-2.428-2.138 1.498a11.619 11.619 0 0 0-4.406-1.814l-.456-2.58h-3.437l-.455 2.586a11.558 11.558 0 0 0-4.393 1.815l-2.15-1.505-2.428 2.428 1.504 2.15c-.891 1.3-1.511 2.791-1.821 4.394l-2.586.462v3.43l2.586.455c.303 1.61.923 3.1 1.814 4.407zm9.664-12.464c3.241 0 5.9 2.629 5.9 5.9 0 3.24-2.659 5.899-5.9 5.899-3.27 0-5.9-2.659-5.9-5.9 0-3.27 2.63-5.9 5.9-5.9zM71.934 94.925a9.366 9.366 0 0 0-1.461 3.524l-2.074.37v2.753l2.074.365a9.321 9.321 0 0 0 1.455 3.535l-1.201 1.714 1.947 1.948 1.72-1.201a9.263 9.263 0 0 0 3.53 1.455l.365 2.074h2.757l.366-2.074a9.195 9.195 0 0 0 3.535-1.45l1.714 1.196 1.948-1.948-1.196-1.709a9.253 9.253 0 0 0 1.45-3.54l2.069-.365V98.82l-2.07-.37a9.417 9.417 0 0 0-1.455-3.53l1.202-1.72-1.948-1.948-1.714 1.202a9.32 9.32 0 0 0-3.535-1.456l-.366-2.069H78.29l-.365 2.075a9.273 9.273 0 0 0-3.524 1.455l-1.726-1.207-1.947 1.948 1.207 1.725zm7.747.549c2.6 0 4.733 2.109 4.733 4.732 0 2.6-2.133 4.733-4.733 4.733a4.736 4.736 0 0 1-4.733-4.733 4.72 4.72 0 0 1 4.733-4.732zM55.657 93.551l-1.006 1.436 1.63 1.63 1.44-1.006a7.756 7.756 0 0 0 2.956 1.219l.305 1.736h2.309l.305-1.736a7.698 7.698 0 0 0 2.96-1.214l1.435 1.001 1.63-1.63-1-1.431a7.747 7.747 0 0 0 1.214-2.964l1.732-.306v-2.304l-1.732-.31a7.885 7.885 0 0 0-1.219-2.955l1.006-1.44-1.63-1.63-1.436 1.005a7.803 7.803 0 0 0-2.96-1.218l-.305-1.733h-2.309l-.305 1.737a7.762 7.762 0 0 0-2.951 1.218l-1.445-1.01-1.63 1.63 1.01 1.445a7.842 7.842 0 0 0-1.223 2.95l-1.736.31v2.305l1.736.306a7.803 7.803 0 0 0 1.219 2.96zm6.49-8.37a3.965 3.965 0 0 1 3.963 3.962 3.977 3.977 0 0 1-3.962 3.962 3.965 3.965 0 0 1-3.963-3.962 3.952 3.952 0 0 1 3.963-3.963zM49.049 245.872l2.45.485a.501.501 0 0 0 .194-.982l-2.45-.485a.5.5 0 0 0-.194.982zM230.776 273.18h39.75a.5.5 0 1 0 0-1h-39.75a.5.5 0 1 0 0 1zM67.1 75.657a2.113 2.113 0 1 0-.002-4.226 2.113 2.113 0 0 0 .002 4.226zM54.245 146.698a2.113 2.113 0 1 0-4.227.002 2.113 2.113 0 0 0 4.227-.002zM47.354 172.085a.5.5 0 0 0 .113.698l3.596 2.596a.5.5 0 1 0 .585-.81l-3.596-2.597a.497.497 0 0 0-.698.113zM349.788 136.1a2.113 2.113 0 1 0-.002-4.225 2.113 2.113 0 0 0 .002 4.226zM332.225 125.021a26.794 26.794 0 0 1 4.937-3.244.5.5 0 1 0-.453-.892 27.764 27.764 0 0 0-5.12 3.366.5.5 0 1 0 .636.77zM97.464 80.582l1.517-1.362a.5.5 0 1 0-.668-.744l-1.517 1.362a.5.5 0 1 0 .668.744zM254.573 119.43a2.113 2.113 0 1 0-.003-4.225 2.113 2.113 0 0 0 .003 4.225zM103.74 128.038a2.113 2.113 0 1 0-.003-4.226 2.113 2.113 0 0 0 .003 4.226zM264.891 215.188a2.113 2.113 0 1 0 4.226.003 2.113 2.113 0 0 0-4.226-.003zM246.14 210.27a27.762 27.762 0 0 0-5.12 3.367.5.5 0 1 0 .636.77 26.775 26.775 0 0 1 4.938-3.245.5.5 0 1 0-.453-.891zM245.12 77.18a.497.497 0 0 0 .319-.114 26.785 26.785 0 0 1 4.936-3.245.5.5 0 1 0-.453-.892 27.805 27.805 0 0 0-5.12 3.366.5.5 0 0 0 .318.885zM321.005 99.302a2.113 2.113 0 1 0-.002-4.226 2.113 2.113 0 0 0 .002 4.226zM289.645 131.89a27.805 27.805 0 0 0-5.12 3.365.5.5 0 1 0 .636.77 26.785 26.785 0 0 1 4.937-3.244.5.5 0 1 0-.453-.892zM185.667 244.309a2.113 2.113 0 1 0 4.226.003 2.113 2.113 0 0 0-4.226-.003zM166.917 239.392a27.776 27.776 0 0 0-5.12 3.366.5.5 0 0 0 .637.77 26.749 26.749 0 0 1 4.936-3.245.5.5 0 0 0-.453-.891z"/></svg>